<?xml version="1.0" standalone="no"?>
<!DOCTYPE svg PUBLIC "-//W3C//DTD SVG 20010904//EN"
 "http://www.w3.org/TR/2001/REC-SVG-20010904/DTD/svg10.dtd">
<svg version="1.0" xmlns="http://www.w3.org/2000/svg"
 width="500.000000pt" height="500.000000pt" viewBox="0 0 500.000000 500.000000"
 preserveAspectRatio="xMidYMid meet">
<metadata>
Created by potrace 1.11, written by Peter Selinger 2001-2013
</metadata>
<g transform="translate(0.000000,500.000000) scale(0.100000,-0.100000)"
fill="#000000" stroke="none">
<path d="M1940 4430 c-32 -60 9 -131 166 -292 60 -62 128 -140 151 -173 51
-76 95 -163 90 -178 -2 -6 -15 15 -30 47 -77 167 -356 435 -570 547 -112 58
-164 53 -168 -18 -1 -13 -2 -29 -3 -35 -4 -32 26 -153 59 -239 79 -206 137
-278 303 -381 64 -39 139 -93 166 -119 47 -44 49 -48 33 -64 -9 -9 -17 -18
-17 -19 0 -2 -5 -28 -11 -57 -7 -30 -13 -151 -14 -269 -2 -192 -4 -219 -22
-255 -11 -22 -49 -98 -85 -170 -126 -251 -157 -345 -182 -555 -22 -181 -19
-173 -124 -380 -156 -308 -203 -460 -206 -657 -1 -104 -3 -122 -16 -118 -8 2
-35 5 -59 7 -35 2 -47 -2 -62 -21 -54 -66 3 -166 147 -262 111 -73 105 -66 99
-110 -3 -21 -1 -48 5 -60 22 -40 61 -46 310 -48 129 -1 282 -3 340 -6 58 -2
188 -7 290 -10 192 -6 346 -13 415 -20 104 -11 242 -7 276 8 82 34 125 169 69
217 -44 38 -257 99 -407 117 -45 5 -51 8 -42 22 5 9 23 36 39 61 60 93 121
247 136 342 3 24 8 106 10 183 3 111 -1 158 -15 225 -11 47 -22 93 -26 103 -4
9 9 1 28 -18 19 -19 43 -35 53 -36 90 -3 122 -7 141 -17 74 -40 176 33 190
136 7 53 -37 111 -111 146 -58 28 -83 54 -139 151 -57 99 -68 144 -71 300 -3
133 -5 145 -40 237 -20 53 -39 110 -42 126 -7 34 -8 33 151 134 89 57 166 131
198 193 16 30 22 58 22 115 0 67 -4 82 -35 140 -45 84 -180 221 -287 294 -135
91 -247 137 -358 148 -28 3 -31 7 -47 75 -57 238 -237 396 -564 496 -119 37
-123 38 -134 17z"/>
</g>
</svg>
