<?xml version="1.0" standalone="no"?>
<!DOCTYPE svg PUBLIC "-//W3C//DTD SVG 20010904//EN"
 "http://www.w3.org/TR/2001/REC-SVG-20010904/DTD/svg10.dtd">
<svg version="1.0" xmlns="http://www.w3.org/2000/svg"
 width="500.000000pt" height="500.000000pt" viewBox="0 0 500.000000 500.000000"
 preserveAspectRatio="xMidYMid meet">
<metadata>
Created by potrace 1.11, written by Peter Selinger 2001-2013
</metadata>
<g transform="translate(0.000000,500.000000) scale(0.100000,-0.100000)"
fill="#000000" stroke="none">
<path d="M1941 4437 c-6 -6 -11 -27 -11 -47 0 -52 44 -116 174 -249 142 -147
230 -276 250 -366 3 -16 -9 2 -27 40 -92 191 -356 449 -580 566 -137 71 -171
56 -164 -76 5 -93 37 -198 102 -330 63 -127 114 -180 253 -267 64 -39 139 -93
167 -119 47 -45 49 -48 33 -66 -31 -34 -41 -112 -43 -338 l-2 -220 -97 -194
c-115 -228 -159 -354 -181 -511 -34 -250 -31 -239 -125 -423 -160 -314 -211
-475 -214 -673 l-1 -121 -61 5 c-56 4 -63 2 -78 -19 -50 -72 8 -166 171 -273
l78 -52 -3 -43 c-4 -55 17 -87 65 -100 21 -5 223 -12 448 -15 226 -4 496 -11
600 -16 445 -23 480 -23 518 -11 69 23 123 129 97 192 -22 53 -146 98 -380
138 l-99 16 31 45 c49 72 115 218 140 310 19 73 22 109 22 255 0 160 -10 241
-39 318 -4 9 9 1 28 -18 32 -32 40 -35 91 -35 31 0 73 -7 93 -15 70 -29 130
-9 172 59 34 54 37 98 11 141 -24 39 -84 85 -111 85 -23 0 -69 54 -117 137
-60 103 -71 149 -75 308 -4 136 -5 143 -45 249 -23 60 -42 117 -42 126 0 22
18 37 128 105 305 187 332 377 88 620 -166 166 -384 285 -522 285 -31 0 -32 1
-43 62 -37 211 -222 395 -488 486 -127 44 -200 61 -212 49z"/>
</g>
</svg>
